<?xml version="1.0" encoding="UTF-8" standalone="no"?>
<!-- Created with Inkscape (http://www.inkscape.org/) -->
<svg
   xmlns:svg="http://www.w3.org/2000/svg"
   xmlns="http://www.w3.org/2000/svg"
   version="1.0"
   width="250"
   height="350"
   id="svg2"
   xml:space="preserve"><defs
     id="defs6" /><g
     transform="matrix(1.25,0,0,-1.25,-352.27499,1043.1113)"
     id="g12"><path
       d="m 481.81999,555.52801 -200,0 0,277.92205 200,0 0,-277.92205 z"
       id="path114"
       style="fill:#ffffff;fill-opacity:1;fill-rule:nonzero;stroke:none" /><path
       d="m 284.42302,602.24629 194.80004,0 0,228.60685 -194.80004,0 0,-228.60685 z"
       id="path116"
       style="fill:#080705;fill-opacity:1;fill-rule:nonzero;stroke:none" /><path
       d="m 479.21697,558.12697 -194.79802,0 0,41.55897 194.79802,0 0,-41.55897 z"
       id="path118"
       style="fill:#080705;fill-opacity:1;fill-rule:nonzero;stroke:none" /><path
       d="m 296.99719,640.28173 14.21807,0 0,-3.24108 -9.95489,0 0,-7.25839 9.40828,0 0,-3.24311 -9.40828,0 0,-11.40982 -4.26318,0 0,25.1524 z"
       id="path120"
       style="fill:#ffffff;fill-opacity:1;fill-rule:nonzero;stroke:none" /><path
       d="m 318.46756,625.18988 7.00236,0 -3.46257,11.04406 -0.0772,0 -3.46257,-11.04406 z m 0.94895,15.09185 5.14103,0 8.56904,-25.1524 -4.45216,0 -2.18646,6.81744 -9.03845,0 -2.18849,-6.81744 -4.4481,0 8.60359,25.1524 z"
       id="path122"
       style="fill:#ffffff;fill-opacity:1;fill-rule:nonzero;stroke:none" /><path
       d="m 336.47739,640.28173 4.26319,0 0,-25.1524 -4.26319,0 0,25.1524 z"
       id="path124"
       style="fill:#ffffff;fill-opacity:1;fill-rule:nonzero;stroke:none" /><path
       d="m 351.02466,628.94303 1.67845,0 c 2.65789,0 5.42957,0.54662 5.42957,4.26929 0,2.62131 -1.34926,4.04373 -3.75518,4.04373 l -3.35284,0 0,-8.31302 z m -4.26725,11.3387 7.62009,0 c 4.74071,0 8.09355,-1.67642 8.09355,-6.59798 0,-3.97058 -2.40591,-5.21215 -4.99268,-5.83395 l 0,-0.0711 c 3.49914,-0.76607 3.89945,-2.91798 4.48264,-5.57994 l 1.53215,-7.06941 -4.3404,0 -1.16435,5.42957 c -0.87581,4.00918 -1.38584,5.36048 -5.2853,5.36048 l -1.67845,0 0,-10.79005 -4.26725,0 0,25.1524 z"
       id="path126"
       style="fill:#ffffff;fill-opacity:1;fill-rule:nonzero;stroke:none" /><path
       d="m 371.51356,637.04065 -6.30943,0 0,3.24108 16.88206,0 0,-3.24108 -6.30944,0 0,-21.91132 -4.26319,0 0,21.91132 z"
       id="path128"
       style="fill:#ffffff;fill-opacity:1;fill-rule:nonzero;stroke:none" /><path
       d="m 389.7774,628.94303 1.67642,0 c 2.66195,0 5.43364,0.54662 5.43364,4.26929 0,2.62131 -1.34927,4.04373 -3.75925,4.04373 l -3.35081,0 0,-8.31302 z m -4.26522,11.3387 7.61603,0 c 4.74071,0 8.09762,-1.67642 8.09762,-6.59798 0,-3.97058 -2.40592,-5.21215 -4.99878,-5.83395 l 0,-0.0711 c 3.50524,-0.76607 3.90352,-2.91798 4.48874,-5.57994 l 1.53011,-7.06941 -4.33634,0 -1.17044,5.42957 c -0.87377,4.00918 -1.38178,5.36048 -5.2853,5.36048 l -1.67642,0 0,-10.79005 -4.26522,0 0,25.1524 z"
       id="path130"
       style="fill:#ffffff;fill-opacity:1;fill-rule:nonzero;stroke:none" /><path
       d="m 411.61557,625.18988 6.99829,0 -3.46257,11.04406 -0.0711,0 -3.4646,-11.04406 z m 0.94692,15.09185 5.14103,0 8.56701,-25.1524 -4.44607,0 -2.18849,6.81744 -9.04251,0 -2.18646,-6.81744 -4.44607,0 8.60156,25.1524 z"
       id="path132"
       style="fill:#ffffff;fill-opacity:1;fill-rule:nonzero;stroke:none" /><path
       d="m 434.03896,618.15095 1.96294,0 c 4.30383,0 6.34601,1.89994 6.34601,9.62773 0,6.12249 -1.05868,9.47737 -6.34601,9.47737 l -1.96294,0 0,-19.1051 z m -4.26928,22.13078 6.23222,0 c 8.05901,0 11.05015,-3.49915 11.05015,-12.50305 0,-11.63131 -5.83191,-12.64935 -11.05015,-12.64935 l -6.23222,0 0,25.1524 z"
       id="path134"
       style="fill:#ffffff;fill-opacity:1;fill-rule:nonzero;stroke:none" /><path
       d="m 451.24412,640.28173 14.69153,0 0,-3.24108 -10.42835,0 0,-7.25839 9.87971,0 0,-3.24311 -9.87971,0 0,-8.16874 10.72097,0 0,-3.24108 -14.98415,0 0,25.1524 z"
       id="path136"
       style="fill:#ffffff;fill-opacity:1;fill-rule:nonzero;stroke:none" /><path
       d="m 297.04595,588.40008 4.03764,0 4.84638,-13.90515 0.0508,0 4.87279,13.90515 4.01325,0 0,-17.41649 -2.70259,0 0,13.73243 -0.0508,0 -4.79355,-13.73243 -2.72901,0 -4.79558,13.73243 -0.0508,0 0,-13.73243 -2.69853,0 0,17.41649 z"
       id="path138"
       style="fill:#ffffff;fill-opacity:1;fill-rule:nonzero;stroke:none" /><path
       d="m 322.00938,577.94937 4.84638,0 -2.39983,7.64854 -0.0488,0 -2.39779,-7.64854 z m 0.65634,10.45071 3.55808,0 5.93351,-17.41649 -3.08055,0 -1.51386,4.71836 -6.2627,0 -1.51183,-4.71836 -3.08055,0 5.9579,17.41649 z"
       id="path140"
       style="fill:#ffffff;fill-opacity:1;fill-rule:nonzero;stroke:none" /><path
       d="m 337.73522,580.17241 -4.92157,8.22767 3.23092,0 3.35487,-5.42348 3.25734,5.42348 3.28172,0 -4.89718,-8.22767 5.60432,-9.18882 -3.33252,0 -3.91368,6.41104 -3.90961,-6.41104 -3.35894,0 5.60433,9.18882 z"
       id="path142"
       style="fill:#ffffff;fill-opacity:1;fill-rule:nonzero;stroke:none" /><path
       d="m 354.0666,588.40008 2.95456,0 0,-7.21572 6.26067,0 0,7.21572 2.94847,0 0,-17.41649 -2.94847,0 0,7.95335 -6.26067,0 0,-7.95335 -2.95456,0 0,17.41649 z"
       id="path144"
       style="fill:#ffffff;fill-opacity:1;fill-rule:nonzero;stroke:none" /><path
       d="m 373.40131,577.94937 4.84841,0 -2.39982,7.64854 -0.0508,0 -2.39779,-7.64854 z m 0.65635,10.45071 3.56011,0 5.93148,-17.41649 -3.08055,0 -1.51589,4.71836 -6.25864,0 -1.51589,-4.71836 -3.07852,0 5.9579,17.41649 z"
       id="path146"
       style="fill:#ffffff;fill-opacity:1;fill-rule:nonzero;stroke:none" /><path
       d="m 382.61858,588.40008 3.07648,0 4.54767,-14.01081 0.0467,0 4.62083,14.01081 3.08461,0 -5.98838,-17.41649 -3.55807,0 -5.82988,17.41649 z"
       id="path148"
       style="fill:#ffffff;fill-opacity:1;fill-rule:nonzero;stroke:none" /><path
       d="m 399.4092,588.40008 10.16622,0 0,-2.24539 -7.21775,0 0,-5.02317 6.83979,0 0,-2.24742 -6.83979,0 0,-5.65512 7.41689,0 0,-2.24539 -10.36536,0 0,17.41649 z"
       id="path150"
       style="fill:#ffffff;fill-opacity:1;fill-rule:nonzero;stroke:none" /><path
       d="m 412.53201,588.40008 2.95254,0 0,-15.1711 6.84182,0 0,-2.24539 -9.79436,0 0,17.41649 z"
       id="path152"
       style="fill:#ffffff;fill-opacity:1;fill-rule:nonzero;stroke:none" /><path
       d="m 427.62589,577.94937 4.84435,0 -2.39373,7.64854 -0.0528,0 -2.39779,-7.64854 z m 0.65635,10.45071 3.56214,0 5.92741,-17.41649 -3.07648,0 -1.51589,4.71836 -6.25864,0 -1.51792,-4.71836 -3.07649,0 5.95587,17.41649 z"
       id="path154"
       style="fill:#ffffff;fill-opacity:1;fill-rule:nonzero;stroke:none" /><path
       d="m 443.0449,577.94937 4.85247,0 -2.40388,7.64854 -0.0467,0 -2.40185,-7.64854 z m 0.6604,10.45071 3.55808,0 5.93351,-17.41649 -3.08055,0 -1.51386,4.71836 -6.2627,0 -1.51182,-4.71836 -3.08258,0 5.95992,17.41649 z"
       id="path156"
       style="fill:#ffffff;fill-opacity:1;fill-rule:nonzero;stroke:none" /><path
       d="m 457.9437,580.55036 1.15622,0 c 1.84508,0 3.76128,0.37999 3.76128,2.95457 0,1.81866 -0.92863,2.80013 -2.59896,2.80013 l -2.31854,0 0,-5.7547 z m -2.95456,7.84972 5.2731,0 c 3.28579,0 5.60636,-1.15826 5.60636,-4.568 0,-2.75136 -1.66626,-3.60887 -3.46054,-4.0356 l 0,-0.0528 c 2.42827,-0.52833 2.70259,-2.01983 3.10697,-3.86288 l 1.05665,-4.89718 -3.0013,0 -0.80468,3.76128 c -0.60758,2.77371 -0.96318,3.71454 -3.66578,3.71454 l -1.15622,0 0,-7.47582 -2.95456,0 0,17.41649 z"
       id="path158"
       style="fill:#ffffff;fill-opacity:1;fill-rule:nonzero;stroke:none" /><path
       d="m 421.12138,759.4295 c -0.60148,-5.59213 -3.42802,-10.69658 -7.96553,-14.35626 -5.05771,-4.06811 -11.86906,-5.98837 -18.68041,-5.25075 -6.75851,0.72544 -12.96838,4.04983 -17.04869,9.11567 -3.6678,4.5497 -5.35235,10.12354 -4.75697,15.71161 0.60758,5.65716 3.47274,10.82053 8.08746,14.53304 5.0699,4.08437 11.83655,6.01276 18.55645,5.29343 6.71788,-0.73763 12.91149,-4.04983 16.99586,-9.11973 3.71047,-4.60863 5.41331,-10.25766 4.81183,-15.92701 m -39.69357,52.93424 c -14.65699,0 -29.05592,-4.16362 -41.70324,-11.98894 -2.3856,-4.9175 -5.13899,-12.36894 -5.13899,-20.76933 0,0 0.0528,-2.0117 0.0528,-2.02186 0.73966,-14.41519 10.1906,-25.84736 27.29822,-33.05698 9.39608,-3.97261 18.99334,-7.07348 28.26343,-10.08494 l 0.54052,-0.16459 c 27.10518,-8.79054 53.4707,-17.51606 57.90661,-44.25344 8.21547,12.77128 12.4685,27.37341 12.4685,42.64001 0,43.9466 -35.75144,79.70007 -79.68788,79.70007"
       id="path160"
       style="fill:#4cc5e9;fill-opacity:1;fill-rule:nonzero;stroke:none" /><path
       d="m 417.32962,759.87858 c -0.48159,-4.56799 -2.81029,-8.73365 -6.53499,-11.73698 -4.26522,-3.43209 -10.02601,-5.04958 -15.8315,-4.42372 -11.20459,1.20703 -19.43632,10.43242 -18.34715,20.54581 1.09729,10.23327 11.1294,17.58514 22.35633,16.37608 11.22491,-1.20905 19.46477,-10.51979 18.35731,-20.76119 m -2.36934,14.3786 c -3.78566,4.70211 -9.53222,7.77859 -15.76648,8.44713 -6.24238,0.67057 -12.50711,-1.10745 -17.20515,-4.88905 -4.22661,-3.41583 -6.86621,-8.14232 -7.43111,-13.32602 -0.54459,-5.10241 1.00178,-10.20686 4.37291,-14.3908 3.77957,-4.68991 9.54442,-7.76436 15.81728,-8.44306 6.32366,-0.68073 12.64123,1.0912 17.32708,4.85857 4.16362,3.35487 6.75242,8.02853 7.29903,13.15126 0.5649,5.18167 -1.00788,10.36739 -4.41356,14.59197"
       id="path162"
       style="fill:#4cc5e9;fill-opacity:1;fill-rule:nonzero;stroke:none" /><path
       d="m 389.5681,732.89126 c -9.31683,3.01146 -18.9405,6.13062 -28.39754,10.12354 -17.72129,7.46566 -27.49939,19.37942 -28.27766,34.45705 l -0.0528,2.06453 c 0,8.94498 2.93221,16.76827 5.50475,21.96009 12.9501,8.11591 27.77981,12.43396 42.93465,12.43396 44.8224,0 81.28912,-36.46874 81.28912,-81.3013 0,-16.90848 -5.2284,-33.16874 -15.04105,-46.90929 -3.00536,29.52531 -29.78948,38.03137 -57.95944,47.17142 m 75.28652,-0.26213 c 0,46.09648 -37.49289,83.58733 -83.57515,83.58733 -16.4533,0 -31.75648,-4.84638 -44.70454,-13.07405 -3.22686,-6.34601 -6.02699,-14.67731 -6.02699,-23.60603 0,-0.7234 0.0203,-1.45696 0.0528,-2.18849 0.83313,-16.00219 11.09282,-28.6109 29.67365,-36.44233 9.52004,-4.01121 19.20873,-7.15679 28.5845,-10.19467 30.31171,-9.82687 56.58985,-18.35527 56.58985,-50.54051 0,-0.32513 -0.0102,-0.68073 -0.0102,-1.01398 12.1068,14.50459 19.416,33.15045 19.416,53.47273"
       id="path164"
       style="fill:#4cc5e9;fill-opacity:1;fill-rule:nonzero;stroke:none" /><path
       d="m 301.43716,732.91158 c 0.0183,14.00471 4.10266,28.65561 11.45859,40.97171 -0.15444,-1.74144 -0.55068,-4.61676 -0.55271,-6.3196 -0.0183,-14.87238 5.2792,-28.0399 15.76648,-39.13882 l 2.09908,-2.20678 c 16.03877,-16.9349 29.90327,-31.56344 29.87686,-50.57507 -0.006,-5.50272 -1.47322,-11.485 -4.15346,-18.08501 -32.18118,10.82256 -54.53955,41.52239 -54.49484,75.35357"
       id="path166"
       style="fill:#b3dc25;fill-opacity:1;fill-rule:nonzero;stroke:none" /><path
       d="m 357.14512,655.2293 c -33.72755,10.55028 -57.16289,41.98773 -57.16289,77.39983 0,16.96334 5.5332,33.53044 15.31943,47.24254 -0.73356,-3.69016 -1.25782,-8.13826 -1.25782,-12.57011 0,-14.45785 5.1715,-27.24132 15.37836,-38.02528 l 2.10112,-2.20068 c 16.3009,-17.16248 30.37877,-31.9861 30.37877,-51.63578 0,-6.4212 -1.69674,-13.08624 -4.75697,-20.21052 m -24.1242,73.71983 -2.10111,2.21694 c -11.4525,12.07226 -14.76063,25.24994 -14.76063,36.4403 0,9.82077 1.41835,16.02251 1.99341,20.13736 -12.81191,-14.68747 -20.62911,-33.83727 -20.62911,-54.81386 0,-38.18378 25.76607,-70.39137 60.81443,-80.35033 3.95229,8.49793 5.68358,16.13428 5.68358,23.16102 0,20.56612 -14.67528,36.00748 -31.00057,53.20857 m -14.86833,58.7946 c 0.77421,0.89003 -0.80468,-0.85142 0,0"
       id="path168"
       style="fill:#b3dc25;fill-opacity:1;fill-rule:nonzero;stroke:none" /></g></svg>